HIERARCHY
ROOT joint_Root
{
	OFFSET 0.0 0.0 0.0
	CHANNELS 6 Xposition Yposition Zposition Zrotation Xrotation Yrotation 
	JOINT Hips
	{
		OFFSET 4.5925 91.4895 -427.239
		CHANNELS 6 Xposition Yposition Zposition Zrotation Xrotation Yrotation 
		JOINT Spine
		{
			OFFSET 15.7357 0.0 0.0
			CHANNELS 6 Xposition Yposition Zposition Zrotation Xrotation Yrotation 
			JOINT Chest
			{
				OFFSET 8.98455 -0.406207 0.0
				CHANNELS 6 Xposition Yposition Zposition Zrotation Xrotation Yrotation 
				JOINT Neck
				{
					OFFSET 16.3773 0.0 0.0
					CHANNELS 6 Xposition Yposition Zposition Zrotation Xrotation Yrotation 
					JOINT Head
					{
						OFFSET 6.45672 0.0 0.0
						CHANNELS 6 Xposition Yposition Zposition Zrotation Xrotation Yrotation 
						End Site
						{
							OFFSET 0.0 0.0 0.0
						}
					}
				}
				JOINT Shoulder_L
				{
					OFFSET 12.9942 -0.242716 4.98039
					CHANNELS 6 Xposition Yposition Zposition Zrotation Xrotation Yrotation 
					JOINT UpperArm_L
					{
						OFFSET 5.34809 0.0 0.0
						CHANNELS 6 Xposition Yposition Zposition Zrotation Xrotation Yrotation 
						JOINT LowerArm_L
						{
							OFFSET 24.3286 1.87007e-05 0.0
							CHANNELS 6 Xposition Yposition Zposition Zrotation Xrotation Yrotation 
							JOINT Hand_L
							{
								OFFSET 22.2916 0.0 0.0
								CHANNELS 6 Xposition Yposition Zposition Zrotation Xrotation Yrotation 
								End Site
								{
									OFFSET 0.0 0.0 0.0
								}
							}
						}
					}
				}
				JOINT Shoulder_R
				{
					OFFSET 12.9945 -0.242716 -4.98039
					CHANNELS 6 Xposition Yposition Zposition Zrotation Xrotation Yrotation 
					JOINT UpperArm_R
					{
						OFFSET -5.34813 0.0 0.0
						CHANNELS 6 Xposition Yposition Zposition Zrotation Xrotation Yrotation 
						JOINT LowerArm_R
						{
							OFFSET -24.3289 0.000322201 0.0
							CHANNELS 6 Xposition Yposition Zposition Zrotation Xrotation Yrotation 
							JOINT Hand_R
							{
								OFFSET -22.2915 -0.000108084 0.0
								CHANNELS 6 Xposition Yposition Zposition Zrotation Xrotation Yrotation 
								End Site
								{
									OFFSET 0.0 0.0 0.0
								}
							}
						}
					}
				}
			}
		}
		JOINT UpperLeg_L
		{
			OFFSET -2.19248 -6.46944 0.0
			CHANNELS 6 Xposition Yposition Zposition Zrotation Xrotation Yrotation 
			JOINT LowerLeg_L
			{
				OFFSET 39.0811 0.0 -1.23785e-05
				CHANNELS 6 Xposition Yposition Zposition Zrotation Xrotation Yrotation 
				JOINT Foot_L
				{
					OFFSET 40.9854 0.0 -1.26872e-05
					CHANNELS 6 Xposition Yposition Zposition Zrotation Xrotation Yrotation 
					JOINT Toes_L
					{
						OFFSET 11.7543 0.0 0.0
						CHANNELS 6 Xposition Yposition Zposition Zrotation Xrotation Yrotation 
						End Site
						{
							OFFSET 0.0 0.0 0.0
						}
					}
				}
			}
		}
		JOINT UpperLeg_R
		{
			OFFSET -2.19251 6.46944 0.0
			CHANNELS 6 Xposition Yposition Zposition Zrotation Xrotation Yrotation 
			JOINT LowerLeg_R
			{
				OFFSET -39.0811 -0.00228153 -0.0401928
				CHANNELS 6 Xposition Yposition Zposition Zrotation Xrotation Yrotation 
				JOINT Foot_R
				{
					OFFSET -40.9854 0.0 0.0
					CHANNELS 6 Xposition Yposition Zposition Zrotation Xrotation Yrotation 
					JOINT Toes_R
					{
						OFFSET -11.7543 0.0 0.0
						CHANNELS 6 Xposition Yposition Zposition Zrotation Xrotation Yrotation 
						End Site
						{
							OFFSET 0.0 0.0 0.0
						}
					}
				}
			}
		}
	}
}
MOTION
Frames:	6
Frame Time:	0.0333333
0.000000 0.000000 0.000000 0.000000 0.000000 -0.000000 -4.472030 88.848200 -506.444000 89.877400 -9.480620 2.403830 15.735700 0.000005 -0.000001 113.618000 83.478600 -114.725000 8.984550 -0.406207 -0.000000 4.250660 5.251150 -2.408910 16.377300 -0.000001 -0.000001 -1.452570 -1.935000 -0.240653 6.456720 -0.000001 -0.000000 -9.878670 -3.109350 -3.846050 12.994200 -0.242716 4.980390 -91.810600 5.309480 -71.138700 5.348090 -0.000007 -0.000001 -73.507000 27.957800 3.894790 24.328600 0.000019 0.000005 4.680170 28.524100 -9.728070 22.291600 -0.000001 0.000005 6.305630 5.168490 3.496790 12.994500 -0.242716 -4.980390 89.151400 8.536390 -84.301300 -5.348130 -0.000001 -0.000004 -47.409100 23.456000 -29.220400 -24.328900 0.000322 -0.000009 0.525107 0.703798 -36.787200 -22.291500 -0.000108 -0.000004 19.405200 5.446420 -4.511810 -2.192480 -6.469440 -0.000000 178.341000 -13.913200 -28.695800 39.081100 -0.000007 -0.000012 0.073804 -0.144323 27.084400 40.985400 -0.000006 -0.000013 2.749020 2.260030 -56.436400 11.754300 -0.000000 0.000003 -0.001861 -0.026967 -17.673300 -2.192510 6.469440 -0.000001 171.825000 22.298400 -172.474000 -39.081100 -0.002282 -0.040193 -0.053318 0.099109 29.739400 -40.985400 0.000008 0.000006 7.782690 14.475100 -77.641100 -11.754300 -0.000006 -0.000006 -0.017261 -0.151617 -22.762900
0.000000 0.000000 0.000000 0.000000 0.000000 -0.000000 -3.932820 88.416800 -503.280000 89.735700 -10.689800 2.008340 15.735700 0.000005 -0.000001 114.948000 83.742800 -116.086000 8.984550 -0.406207 -0.000000 3.647840 5.312680 -2.444660 16.377300 -0.000001 -0.000001 -1.313780 -1.613170 -0.388050 6.456720 -0.000001 -0.000000 -9.713820 -2.525890 -4.921790 12.994200 -0.242716 4.980390 -91.855500 5.482260 -71.268600 5.348090 -0.000007 -0.000001 -73.569100 29.272200 3.445400 24.328600 0.000019 0.000005 5.142090 28.405700 -10.712100 22.291600 -0.000001 0.000005 6.316830 5.194750 2.850590 12.994500 -0.242716 -4.980390 89.160000 8.678430 -84.450200 -5.348130 -0.000001 -0.000004 -47.508300 24.134400 -28.739100 -24.328900 0.000322 -0.000009 0.135549 0.185938 -36.304300 -22.291500 -0.000108 -0.000004 19.562000 5.449330 -4.615820 -2.192480 -6.469440 -0.000000 178.468000 -13.581700 -29.916300 39.081100 -0.000007 -0.000012 0.032456 -0.053377 31.301200 40.985400 -0.000006 -0.000013 2.981260 0.490227 -53.936400 11.754300 -0.000000 0.000003 -0.001617 -0.023820 -17.545300 -2.192510 6.469440 -0.000001 170.888000 20.211800 -171.896000 -39.081100 -0.002282 -0.040193 -0.047565 0.084258 31.118300 -40.985400 0.000008 0.000006 7.017030 14.478200 -76.939500 -11.754300 -0.000006 -0.000006 -0.030343 -0.219032 -25.547100
0.000000 0.000000 0.000000 0.000000 0.000000 -0.000000 -3.327940 88.065200 -499.695000 89.801800 -11.879900 1.818840 15.735700 0.000005 -0.000001 116.322000 84.068000 -117.586000 8.984550 -0.406207 -0.000000 2.938880 5.308910 -2.662780 16.377300 -0.000001 -0.000001 -1.172440 -1.239800 -0.358553 6.456720 -0.000001 -0.000000 -9.280070 -1.960650 -5.434620 12.994200 -0.242716 4.980390 -91.918200 5.676160 -71.293200 5.348090 -0.000007 -0.000001 -72.970100 30.603100 2.625120 24.328600 0.000019 0.000005 5.675010 27.172500 -12.276600 22.291600 -0.000001 0.000005 5.822060 5.202740 2.650830 12.994500 -0.242716 -4.980390 89.098800 8.999290 -84.257900 -5.348130 -0.000001 -0.000004 -48.369000 25.384900 -27.468600 -24.328900 0.000322 -0.000009 -0.161742 -0.230380 -34.886200 -22.291500 -0.000108 -0.000004 19.155100 5.454640 -4.806580 -2.192480 -6.469440 -0.000000 178.703000 -12.058400 -30.290800 39.081100 -0.000007 -0.000012 -0.029157 0.039846 36.195600 40.985400 -0.000006 -0.000013 2.506830 -2.105830 -55.965200 11.754300 -0.000000 0.000003 -0.000661 -0.010470 -17.002700 -2.192510 6.469440 -0.000001 169.993000 17.206700 -171.307000 -39.081100 -0.002282 -0.040193 -0.030388 0.052467 32.700700 -40.985400 0.000008 0.000006 6.214840 13.546000 -75.214400 -11.754300 -0.000006 -0.000006 -0.052130 -0.305274 -29.153800
0.000000 0.000000 0.000000 0.000000 0.000000 -0.000000 -2.650850 87.861700 -495.820000 90.104100 -12.873400 2.152000 15.735700 0.000005 -0.000001 117.463000 84.308800 -118.963000 8.984550 -0.406207 -0.000000 2.414600 5.315220 -3.109390 16.377300 -0.000001 -0.000001 -0.970272 -1.007210 -0.322402 6.456720 -0.000001 -0.000000 -8.830620 -1.571060 -5.426730 12.994200 -0.242716 4.980390 -91.935400 5.780000 -71.451500 5.348090 -0.000007 -0.000001 -71.742500 32.433900 1.075280 24.328600 0.000019 0.000005 6.014770 26.209100 -13.418600 22.291600 -0.000001 0.000005 6.375180 5.214340 2.357640 12.994500 -0.242716 -4.980390 89.042900 9.263880 -84.075400 -5.348130 -0.000001 -0.000004 -50.924900 26.283600 -24.447600 -24.328900 0.000322 -0.000009 -0.086295 -0.130386 -33.121500 -22.291500 -0.000108 -0.000004 18.699300 5.447670 -4.555860 -2.192480 -6.469440 -0.000000 178.591000 -10.080700 -29.211700 39.081100 -0.000007 -0.000012 -0.159905 0.190637 39.990200 40.985400 -0.000006 -0.000013 1.844150 -4.574510 -59.462800 11.754300 -0.000000 0.000003 0.000920 0.017275 -15.876200 -2.192510 6.469440 -0.000001 169.279000 13.360700 -170.905000 -39.081100 -0.002282 -0.040193 -0.000436 0.005297 35.131800 -40.985400 0.000008 0.000006 5.062900 11.549100 -71.830600 -11.754300 -0.000006 -0.000006 -0.090260 -0.419719 -34.045700
0.000000 0.000000 0.000000 0.000000 0.000000 -0.000000 -1.925670 87.897000 -491.900000 90.189300 -13.949000 2.606050 15.735700 0.000005 -0.000001 118.683000 84.434600 -120.305000 8.984550 -0.406207 -0.000000 2.086830 5.419190 -3.342320 16.377300 -0.000001 -0.000001 -0.859245 -0.766169 -0.264977 6.456720 -0.000001 -0.000000 -8.522170 -1.297930 -5.734370 12.994200 -0.242716 4.980390 -92.010600 6.038790 -71.546100 5.348090 -0.000007 -0.000001 -69.583800 34.351300 -1.768430 24.328600 0.000019 0.000005 6.269680 25.776900 -14.178300 22.291600 -0.000001 0.000005 7.040520 5.220260 2.201490 12.994500 -0.242716 -4.980390 89.047100 9.362440 -84.162100 -5.348130 -0.000001 -0.000004 -54.560400 26.420800 -20.367400 -24.328900 0.000322 -0.000009 -0.007442 -0.010530 -30.821600 -22.291500 -0.000108 -0.000004 18.318700 5.444780 -4.453950 -2.192480 -6.469440 -0.000000 178.141000 -9.507610 -27.039300 39.081100 -0.000007 -0.000012 -0.220109 0.242874 42.185500 40.985400 -0.000006 -0.000013 1.630530 -6.242460 -63.265800 11.754300 -0.000000 0.000003 -0.000019 -0.000242 -16.587000 -2.192510 6.469440 -0.000001 169.077000 9.841860 -171.875000 -39.081100 -0.002282 -0.040193 0.056514 -0.064737 39.431000 -40.985400 0.000008 0.000006 5.345180 9.125820 -66.103800 -11.754300 -0.000006 -0.000006 -0.164607 -0.582795 -41.316700
0.000000 0.000000 0.000000 0.000000 0.000000 -0.000000 -1.220120 88.175600 -488.212000 89.976900 -14.564500 3.388500 15.735700 0.000005 -0.000001 117.850000 84.539200 -119.361000 8.984550 -0.406207 -0.000000 1.968480 5.175340 -3.109060 16.377300 -0.000001 -0.000001 -0.696618 -0.516715 -0.634375 6.456720 -0.000001 -0.000000 -8.171370 -0.965608 -6.256260 12.994200 -0.242716 4.980390 -92.143700 6.450460 -71.572500 5.348090 -0.000007 -0.000001 -66.927700 35.688900 -5.254560 24.328600 0.000019 0.000005 6.604050 25.832700 -14.879500 22.291600 -0.000001 0.000005 7.619430 5.213630 2.374550 12.994500 -0.242716 -4.980390 89.079700 9.300930 -84.323900 -5.348130 -0.000001 -0.000004 -58.196700 26.574800 -16.094300 -24.328900 0.000322 -0.000009 -0.108953 -0.208058 -27.414400 -22.291500 -0.000108 -0.000004 18.023600 5.436490 -4.162600 -2.192480 -6.469440 -0.000000 177.740000 -11.034400 -23.711100 39.081100 -0.000007 -0.000012 -0.230428 0.250512 42.609300 40.985400 -0.000006 -0.000013 2.352930 -5.641850 -66.361100 11.754300 -0.000000 0.000003 -0.000039 -0.000460 -16.595500 -2.192510 6.469440 -0.000001 168.981000 7.898860 -174.275000 -39.081100 -0.002282 -0.040193 0.117958 -0.111565 45.793000 -40.985400 0.000008 0.000006 6.036690 7.458340 -57.991500 -11.754300 -0.000006 -0.000006 -0.196149 -0.638668 -43.918200
